<svg width="507" height="512" viewBox="0 0 507 512" fill="none" xmlns="http://www.w3.org/2000/svg">
<path d="M312.313 112.992C317.641 107.633 325.274 105.254 332.703 106.637C343.121 110.078 337.91 141.418 337.91 141.418C333.02 157.086 320.852 169.418 305.25 174.52H126.051C110.438 169.402 98.2502 157.082 93.297 141.418C93.297 141.418 88.1799 110.078 98.6838 106.637C106.086 105.25 113.695 107.633 118.988 112.992H312.313Z" fill="#F09372"/>
<path d="M344.621 495.758C302.383 506.043 259.117 511.492 215.648 512C215.648 512 0 512 0 422.137C0 392.387 6.00391 359.461 27.3672 336.773C50.4062 312.23 92.9531 298.02 125.793 296.344H305.523C323.973 297.484 342.121 301.566 359.281 308.438C359.406 308.422 359.531 308.453 359.637 308.523L344.621 495.758Z" fill="#2A2A60"/>
<path d="M506.438 406.07C506.438 464.574 459.012 512 400.508 512C342.004 512 294.578 464.574 294.578 406.07C294.578 347.566 342.004 300.137 400.508 300.137C459.012 300.137 506.438 347.566 506.438 406.07Z" fill="#5151AD"/>
<path d="M305.168 168.164C305.168 191.648 312.055 211.863 284.512 235.434C279.098 240.074 274.133 245.215 269.684 250.793C255.649 268.184 250.879 282.484 229.43 282.484H201.887C180.438 282.484 175.668 268.184 161.633 250.793C157.184 245.215 152.219 240.074 146.805 235.434C119.262 211.863 126.145 191.648 126.145 168.164C126.145 144.684 115.817 137.887 119.262 70.6211C122.704 3.35547 208.774 0 208.774 0H222.543C222.543 0 308.614 3.35547 312.055 70.6211C315.497 137.887 305.168 144.598 305.168 168.164Z" fill="#FDD7AD"/>
<path d="M305.523 296.344C305.523 296.344 305.523 337.391 245.762 395.652L223.957 361.93L215.656 353.102C225.398 353.074 233.285 345.188 233.312 335.449V313.113C257.828 309.641 281.988 304.027 305.523 296.344Z" fill="#E6E7E8"/>
<path d="M207.184 350.984L206.832 353.102L185.555 395.652C125.793 337.391 125.793 296.344 125.793 296.344C149.328 304.027 173.488 309.641 198.004 313.113V335.449C197.984 341.918 201.508 347.879 207.184 350.984Z" fill="#E6E7E8"/>
<path d="M245.762 395.652C237.109 404.125 227.074 412.953 215.656 422.137C204.27 412.953 194.234 404.125 185.555 395.652L206.832 353.102L207.184 350.984C209.793 352.375 212.703 353.105 215.656 353.102L215.129 335.449L245.762 395.652Z" fill="#C03A2B"/>
<path d="M305.523 296.344C281.988 304.027 257.828 309.641 233.312 313.113C233.172 310.781 231.238 308.961 228.898 308.965H202.418C200.078 308.961 198.145 310.781 198.004 313.113C173.488 309.641 149.328 304.027 125.793 296.344C145.953 289.953 160.164 271.891 161.633 250.793C175.668 268.184 180.438 282.484 201.887 282.484H229.43C250.879 282.484 255.648 268.184 269.684 250.793C271.152 271.891 285.359 289.953 305.523 296.344V296.344Z" fill="#F09372"/>
<path d="M233.313 313.113V335.449C233.285 345.188 225.399 353.074 215.656 353.102C212.703 353.105 209.793 352.375 207.184 350.984C201.508 347.879 197.984 341.918 198.004 335.449V313.113C198.145 310.781 200.078 308.961 202.418 308.965H228.899C231.238 308.961 233.172 310.781 233.313 313.113Z" fill="#E64C3C"/>
<path d="M361.543 462.688L338.715 439.859C331.82 432.965 331.82 421.789 338.715 414.898C345.609 408.004 356.785 408.004 363.68 414.898L370.898 422.117C372.625 423.84 375.418 423.84 377.141 422.117L437.336 361.93C444.23 355.039 455.406 355.039 462.301 361.93C469.191 368.824 469.191 380 462.301 386.895L386.508 462.688C379.613 469.582 368.437 469.582 361.543 462.688Z" fill="#DBE8FE"/>
</svg>
